<svg width="114" height="114" fill="none" xmlns="http://www.w3.org/2000/svg"><path d="M102.646 90.432c2.564-1.954 4.229-5.03 4.229-8.495 0-5.284-3.86-9.674-8.906-10.527V69.47c0-4.911-3.996-8.906-8.906-8.906H58.78v-6.491a5.502 5.502 0 003.347 1.147c3 0 5.435-2.39 5.54-5.364a5.545 5.545 0 005.344-5.343 5.545 5.545 0 005.343-5.344c2.973-.105 5.364-2.542 5.364-5.54a5.525 5.525 0 00-1.628-3.931l-.37-.37a16.765 16.765 0 003.779-10.65C85.5 9.36 77.92 1.78 68.605 1.78 64.246 1.781 60.15 3.434 57 6.42 53.849 3.434 49.754 1.78 45.395 1.78c-9.316 0-16.895 7.58-16.895 16.895 0 4.377 1.666 8.49 4.676 11.646a5.512 5.512 0 00-1.114 3.306c0 3 2.39 5.435 5.364 5.54a5.545 5.545 0 005.344 5.344 5.545 5.545 0 005.343 5.343c.105 2.973 2.542 5.364 5.54 5.364.541 0 1.062-.102 1.566-.25v5.593H24.937c-4.91 0-8.906 3.996-8.906 8.907v1.941c-5.046.853-8.906 5.243-8.906 10.528 0 3.464 1.665 6.54 4.229 8.494-5.63 2.49-9.573 8.121-9.573 14.662v7.125h32.063v-7.125c0-6.541-3.944-12.171-9.573-14.662 2.563-1.954 4.229-5.03 4.229-8.495 0-5.284-3.86-9.674-8.906-10.527V69.47a5.35 5.35 0 015.343-5.344H55.22v7.285c-5.047.852-8.907 5.24-8.907 10.528 0 3.464 1.666 6.54 4.23 8.494-5.63 2.49-9.573 8.121-9.573 14.662v7.125H73.03v-7.125c0-6.541-3.943-12.171-9.572-14.662 2.563-1.954 4.228-5.03 4.228-8.495 0-5.284-3.86-9.674-8.906-10.527v-7.285h30.282a5.35 5.35 0 015.343 5.344v1.941c-5.046.852-8.906 5.24-8.906 10.528 0 3.464 1.665 6.54 4.229 8.494-5.63 2.49-9.573 8.121-9.573 14.662v7.125h32.063v-7.125c0-6.541-3.944-12.171-9.573-14.662zM68.605 5.344c7.351 0 13.332 5.981 13.332 13.332 0 2.973-.977 5.79-2.76 8.105l-8.19-8.19c.53-.4 1.045-.823 1.524-1.3l-2.519-2.52a10.32 10.32 0 01-7.344 3.041h-2.823l-3.04 3.041a1.774 1.774 0 01-1.262.522h-6.692a.739.739 0 01-.522-1.26L59.177 9.249a13.25 13.25 0 019.428-3.904zm-23.21 0a13.23 13.23 0 019.069 3.578l-8.675 8.675a4.273 4.273 0 00-1.258 3.04c0 2.371 1.93 4.3 4.3 4.3h6.692c1.427 0 2.77-.555 3.78-1.565l1.997-1.997h1.348c1.78 0 3.504-.34 5.11-.973l11.814 11.814a2 2 0 01-2.825 2.825l-4.238-4.238-2.518 2.519 4.237 4.237a2 2 0 01-2.825 2.825l-4.237-4.237-2.52 2.519 4.239 4.237a2 2 0 01-2.825 2.825l-4.238-4.237-2.519 2.518 4.238 4.238a2 2 0 01-2.825 2.825l-.595-.595a5.542 5.542 0 00.441-2.168c0-3-2.39-5.434-5.363-5.54a5.545 5.545 0 00-5.344-5.343 5.545 5.545 0 00-5.343-5.344c-.105-2.973-2.542-5.363-5.54-5.363a5.496 5.496 0 00-3.274 1.088 13.23 13.23 0 01-3.636-9.13c0-7.352 5.982-13.333 13.333-13.333zm-9.77 28.284c0-.534.208-1.035.584-1.412l1.35-1.35a2 2 0 012.825 2.825l-1.35 1.35a2 2 0 01-3.41-1.413zm5.344 5.344c0-.534.208-1.035.584-1.413l1.35-1.35a2 2 0 012.825 2.825l-1.35 1.35a2 2 0 01-3.41-1.413zm5.343 5.344c0-.535.209-1.035.585-1.413l1.35-1.35a2 2 0 012.825 2.825l-1.35 1.35a2 2 0 01-3.41-1.413zm7.341 7.34a2 2 0 01-1.413-3.41l1.35-1.35a2 2 0 012.825 2.825l-1.35 1.351a1.99 1.99 0 01-1.412.584zm-23.372 53.438v3.562H26.72v-7.125h-3.563v7.125H12.47v-7.125H8.906v7.125H5.344v-3.562c0-6.876 5.593-12.469 12.468-12.469 6.876 0 12.47 5.593 12.47 12.469zm-5.343-23.156a7.132 7.132 0 01-7.125 7.124 7.132 7.132 0 01-7.125-7.124 7.132 7.132 0 017.124-7.126 7.132 7.132 0 017.125 7.126zm44.53 23.156v3.562h-3.562v-7.125h-3.562v7.125H51.656v-7.125h-3.562v7.125H44.53v-3.562c0-6.876 5.593-12.469 12.469-12.469 6.876 0 12.469 5.593 12.469 12.469zm-5.343-23.156A7.132 7.132 0 0157 89.061a7.132 7.132 0 01-7.125-7.124A7.132 7.132 0 0157 74.811a7.132 7.132 0 017.125 7.126zm24.938 0a7.132 7.132 0 017.124-7.126 7.132 7.132 0 017.125 7.126 7.132 7.132 0 01-7.124 7.124 7.132 7.132 0 01-7.126-7.124zm19.593 26.718h-3.562v-7.125h-3.563v7.125H90.844v-7.125H87.28v7.125H83.72v-3.562c0-6.876 5.593-12.469 12.469-12.469 6.875 0 12.468 5.593 12.468 12.469v3.562z" fill="#333"/><path d="M67.688 67.688h3.562v3.562h-3.563v-3.563zM74.813 67.688h3.562v3.562h-3.563v-3.563zM81.938 67.688H85.5v3.562h-3.563v-3.563zM28.5 67.688h3.563v3.562H28.5v-3.563zM35.625 67.688h3.563v3.562h-3.563v-3.563zM42.75 67.688h3.563v3.562H42.75v-3.563z" fill="#333"/></svg>