<svg width="89" height="115" fill="none" xmlns="http://www.w3.org/2000/svg"><path d="M88.973 18.758L70.214 0H14.402v61.155C6.362 61.842.027 68.601.027 76.816c0 4.717 2.091 8.952 5.391 11.836V115h3.703l6.629-6.629L22.38 115h3.702v-11.68h62.89V18.758zM71.003 4.601L84.372 17.97H71.004V4.6zM2.724 76.816c0-7.183 5.844-13.027 13.027-13.027 7.183 0 13.027 5.844 13.027 13.027 0 7.184-5.844 13.028-13.027 13.028-7.183 0-13.027-5.844-13.027-13.028zM15.75 104.56l-7.637 7.637V90.553a15.622 15.622 0 007.637 1.986c2.77 0 5.374-.723 7.637-1.986v21.643l-7.637-7.637zm10.332-3.934V88.652c3.3-2.884 5.39-7.119 5.39-11.836 0-8.215-6.334-14.974-14.374-15.66V2.695h51.21v17.968h17.97v79.961H26.081z" fill="#333"/><path d="M26.531 14.375h21.563v2.695H26.53v-2.695zM26.531 21.563h14.375v2.695H26.531v-2.695zM26.531 32.344h50.313v2.695H26.53v-2.695zM26.531 39.531h50.313v2.696H26.53V39.53zM26.531 53.906h50.313v2.696H26.53v-2.696zM33.719 61.094h35.937v2.695H33.72v-2.695zM26.531 46.719h50.313v2.695H26.53V46.72zM55.281 71.875h21.563v2.695H55.28v-2.695zM62.469 79.063h14.375v2.695H62.469v-2.695zM15.75 85.352c4.706 0 8.535-3.83 8.535-8.536 0-4.706-3.829-8.535-8.535-8.535-4.706 0-8.535 3.83-8.535 8.535 0 4.707 3.829 8.536 8.535 8.536zm0-14.375c3.22 0 5.84 2.62 5.84 5.84 0 3.22-2.62 5.84-5.84 5.84-3.22 0-5.84-2.62-5.84-5.84 0-3.22 2.62-5.84 5.84-5.84z" fill="#333"/></svg>