<svg width="480" height="826" fill="none" xmlns="http://www.w3.org/2000/svg"><path d="M9.004 451.33s107.612-53.084 317.853-5.024c180.979 33.504 199.251-71.186 298.312-40.298" stroke="#F9F9F9" stroke-width="16"/><path d="M9.004 476.447s107.612-53.083 317.853-5.023c180.979 33.504 199.251-71.186 298.312-40.298" stroke="#F9F9F9" stroke-width="16"/><path d="M9.004 502.778s107.612-53.084 317.853-5.024c180.979 33.504 199.251-71.186 298.312-40.298" stroke="#F9F9F9" stroke-width="16"/><path d="M9.004 527.895s107.612-53.083 317.853-5.023c180.979 33.504 199.251-71.186 298.312-40.298" stroke="#F9F9F9" stroke-width="16"/><path d="M8.004 554.778s107.612-53.084 317.853-5.024c180.979 33.504 199.251-71.186 298.312-40.298" stroke="#F9F9F9" stroke-width="16"/><path d="M8.004 579.895s107.612-53.083 317.853-5.023c180.979 33.504 199.251-71.186 298.312-40.298" stroke="#F9F9F9" stroke-width="16"/><path d="M8.004 605.778s107.612-53.084 317.853-5.024c180.979 33.504 199.251-71.186 298.312-40.298" stroke="#F9F9F9" stroke-width="16"/><path d="M8.004 630.895s107.612-53.083 317.853-5.023c180.979 33.504 199.251-71.186 298.312-40.298M5.004 240.33s107.612-53.084 317.853-5.024c180.979 33.504 199.251-71.186 298.312-40.298" stroke="#F9F9F9" stroke-width="16"/><path d="M5.004 265.447s107.612-53.083 317.853-5.023c180.979 33.504 199.251-71.186 298.312-40.298" stroke="#F9F9F9" stroke-width="16"/><path d="M5.004 291.778s107.612-53.084 317.853-5.024c180.979 33.504 199.251-71.186 298.312-40.298" stroke="#F9F9F9" stroke-width="16"/><path d="M5.004 316.895s107.612-53.083 317.853-5.023c180.979 33.504 199.251-71.186 298.312-40.298" stroke="#F9F9F9" stroke-width="16"/><path d="M4.004 343.778s107.612-53.084 317.853-5.024c180.979 33.504 199.251-71.186 298.312-40.298" stroke="#F9F9F9" stroke-width="16"/><path d="M4.004 368.895s107.612-53.083 317.853-5.023c180.979 33.504 199.251-71.186 298.312-40.298" stroke="#F9F9F9" stroke-width="16"/><path d="M4.004 394.778s107.612-53.084 317.853-5.024c180.979 33.504 199.251-71.186 298.312-40.298" stroke="#F9F9F9" stroke-width="16"/><path d="M4.004 419.895s107.612-53.083 317.853-5.023c180.979 33.504 199.251-71.186 298.312-40.298" stroke="#F9F9F9" stroke-width="16"/></svg>