<svg width="574" height="826" fill="none" xmlns="http://www.w3.org/2000/svg"><path d="M-44.996 451.33s107.612-53.084 317.853-5.024c180.979 33.505 199.251-71.186 298.312-40.297" stroke="#1F2845" stroke-width="16"/><path d="M-44.996 476.447s107.612-53.083 317.853-5.023c180.979 33.504 199.251-71.186 298.312-40.298" stroke="#1F2845" stroke-width="16"/><path d="M-44.996 502.778s107.612-53.084 317.853-5.024c180.979 33.504 199.251-71.186 298.312-40.298" stroke="#1F2845" stroke-width="16"/><path d="M-44.996 527.896s107.612-53.084 317.853-5.024c180.979 33.505 199.251-71.186 298.312-40.297" stroke="#1F2845" stroke-width="16"/><path d="M-45.996 554.778s107.612-53.084 317.853-5.024c180.979 33.504 199.251-71.186 298.312-40.298" stroke="#1F2845" stroke-width="16"/><path d="M-45.996 579.896s107.612-53.084 317.853-5.024c180.979 33.505 199.251-71.186 298.312-40.297" stroke="#1F2845" stroke-width="16"/><path d="M-45.996 605.778s107.612-53.084 317.853-5.024c180.979 33.504 199.251-71.186 298.312-40.298" stroke="#1F2845" stroke-width="16"/><path d="M-45.996 630.896s107.612-53.084 317.853-5.024c180.979 33.505 199.251-71.186 298.312-40.297M-48.996 240.33s107.612-53.084 317.853-5.024c180.979 33.505 199.251-71.186 298.312-40.297" stroke="#1F2845" stroke-width="16"/><path d="M-48.996 265.447s107.612-53.083 317.853-5.023c180.979 33.504 199.251-71.186 298.312-40.298" stroke="#1F2845" stroke-width="16"/><path d="M-48.996 291.778s107.612-53.084 317.853-5.024c180.979 33.504 199.251-71.186 298.312-40.298" stroke="#1F2845" stroke-width="16"/><path d="M-48.996 316.896s107.612-53.084 317.853-5.024c180.979 33.505 199.251-71.186 298.312-40.297" stroke="#1F2845" stroke-width="16"/><path d="M-49.996 343.778s107.612-53.084 317.853-5.024c180.979 33.504 199.251-71.186 298.312-40.298" stroke="#1F2845" stroke-width="16"/><path d="M-49.996 368.896s107.612-53.084 317.853-5.024c180.979 33.505 199.251-71.186 298.312-40.297" stroke="#1F2845" stroke-width="16"/><path d="M-49.996 394.778s107.612-53.084 317.853-5.024c180.979 33.504 199.251-71.186 298.312-40.298" stroke="#1F2845" stroke-width="16"/><path d="M-49.996 419.896s107.612-53.084 317.853-5.024c180.979 33.505 199.251-71.186 298.312-40.297" stroke="#1F2845" stroke-width="16"/></svg>