<svg width="573" height="615" fill="none" xmlns="http://www.w3.org/2000/svg"><path d="M-45.996 240.33s107.612-53.084 317.853-5.024c180.979 33.504 199.251-71.186 298.312-40.298" stroke="#F9F9F9" stroke-width="16"/><path d="M-45.996 265.447s107.612-53.083 317.853-5.023c180.979 33.504 199.251-71.186 298.312-40.298" stroke="#F9F9F9" stroke-width="16"/><path d="M-45.996 291.778s107.612-53.084 317.853-5.024c180.979 33.504 199.251-71.186 298.312-40.298" stroke="#F9F9F9" stroke-width="16"/><path d="M-45.996 316.895s107.612-53.083 317.853-5.023c180.979 33.504 199.251-71.186 298.312-40.298" stroke="#F9F9F9" stroke-width="16"/><path d="M-46.996 343.778s107.612-53.084 317.853-5.024c180.979 33.504 199.251-71.186 298.312-40.298" stroke="#F9F9F9" stroke-width="16"/><path d="M-46.996 368.895s107.612-53.083 317.853-5.023c180.979 33.504 199.251-71.186 298.312-40.298" stroke="#F9F9F9" stroke-width="16"/><path d="M-46.996 394.778s107.612-53.084 317.853-5.024c180.979 33.504 199.251-71.186 298.312-40.298" stroke="#F9F9F9" stroke-width="16"/><path d="M-46.996 419.895s107.612-53.083 317.853-5.023c180.979 33.504 199.251-71.186 298.312-40.298" stroke="#F9F9F9" stroke-width="16"/></svg>