<svg fill="#333" xmlns="http://www.w3.org/2000/svg" viewBox="0 0 511.991 511.991"><path d="M486.241 65.831L467.49 47.079c-34.333-34.333-89.997-34.333-124.33-.001l-.001.001-239.616 239.616c-24.277 24.277-24.277 63.638 0 87.915l12.501 12.501c24.728 23.163 63.187 23.163 87.915 0l176.917-176.917c4.237-4.093 4.354-10.845.262-15.083-4.093-4.237-10.845-4.354-15.083-.262-.089.086-.176.173-.262.262L188.876 372.028c-16.248 15.203-41.501 15.203-57.749 0l-12.501-12.501c-15.947-15.945-15.949-41.798-.004-57.745l.004-.004L358.241 62.161c26.366-25.112 67.8-25.112 94.165 0l18.752 18.752c25.993 26.007 25.993 68.158 0 94.165l-267.2 267.2c-36.063 36.05-94.518 36.05-130.581 0l-25.003-24.981c-36.05-36.063-36.05-94.518 0-130.581L252.876 82.215c4.237-4.093 4.355-10.845.262-15.083-4.093-4.237-10.845-4.355-15.083-.262-.089.086-.176.173-.262.262L33.292 271.612C-11.097 316-11.097 387.968 33.291 432.357l.001.001 25.003 25.003c44.388 44.389 116.356 44.39 160.745.002l.001-.002 267.2-267.2c34.333-34.332 34.334-89.997 0-124.33.001 0 .001 0 0 0z" fill="#cfd8dc"/><path d="M138.658 490.663a113.07 113.07 0 01-80.384-33.301L33.292 432.38c-44.389-44.388-44.39-116.356-.001-160.745l.001-.001L237.794 67.132c4.093-4.237 10.845-4.355 15.083-.262 4.237 4.093 4.355 10.845.262 15.083-.086.089-.173.176-.262.262L48.375 286.695c-36.05 36.063-36.05 94.518 0 130.581l25.003 25.003c36.063 36.05 94.518 36.05 130.581 0l267.2-267.2c25.993-26.007 25.993-68.158 0-94.165l-18.752-18.752c-26.366-25.112-67.8-25.112-94.165 0L118.625 301.777c-15.947 15.945-15.949 41.798-.004 57.745l.004.004 12.501 12.501c16.248 15.203 41.501 15.203 57.749 0L365.792 195.11c4.093-4.237 10.845-4.355 15.083-.262 4.237 4.093 4.354 10.845.262 15.083-.086.089-.173.176-.262.262L203.959 387.111c-24.728 23.163-63.187 23.163-87.915 0l-12.501-12.501c-24.277-24.277-24.277-63.638 0-87.915L343.159 47.079c34.333-34.333 89.997-34.333 124.33-.001l.001.001 18.752 18.752c34.333 34.333 34.333 89.997.001 124.33l-.001.001-267.2 267.2a113.07 113.07 0 01-80.384 33.301z"/></svg>