<svg width="115" height="112" fill="none" xmlns="http://www.w3.org/2000/svg"><path d="M43.81 13.013h-6.23c-.93 0-1.684.748-1.684 1.67 0 .922.754 1.67 1.684 1.67h6.23c.93 0 1.685-.748 1.685-1.67 0-.922-.754-1.67-1.685-1.67zM53.221 16.353h24.2c.93 0 1.684-.748 1.684-1.67 0-.922-.754-1.67-1.685-1.67H53.221c-.93 0-1.684.748-1.684 1.67 0 .922.754 1.67 1.684 1.67zM43.81 22.6h-6.23c-.93 0-1.684.747-1.684 1.669s.754 1.67 1.684 1.67h6.23c.93 0 1.685-.748 1.685-1.67 0-.922-.754-1.67-1.685-1.67zM53.221 25.939h24.2c.93 0 1.684-.748 1.684-1.67 0-.922-.754-1.67-1.685-1.67H53.221c-.93 0-1.684.748-1.684 1.67 0 .922.754 1.67 1.684 1.67zM43.81 32.185h-6.23c-.93 0-1.684.748-1.684 1.67 0 .923.754 1.67 1.684 1.67h6.23c.93 0 1.685-.747 1.685-1.67 0-.922-.754-1.67-1.685-1.67zM53.221 35.525h24.2c.93 0 1.684-.747 1.684-1.67 0-.922-.754-1.67-1.685-1.67H53.221c-.93 0-1.684.748-1.684 1.67 0 .923.754 1.67 1.684 1.67zM79.627 91.33v-8.162c0-1.592-1.307-2.888-2.913-2.888H38.286c-1.606 0-2.913 1.296-2.913 2.888v8.162c0 1.592 1.307 2.888 2.913 2.888h38.428c1.606 0 2.913-1.296 2.913-2.888zm-3.37-.452H38.743V83.62h37.516v7.258zM43.81 41.772h-6.23c-.93 0-1.684.747-1.684 1.67 0 .922.754 1.67 1.684 1.67h6.23c.93 0 1.685-.748 1.685-1.67 0-.923-.754-1.67-1.685-1.67zM53.221 45.111h24.2c.93 0 1.684-.747 1.684-1.67 0-.922-.754-1.67-1.685-1.67H53.221c-.93 0-1.684.748-1.684 1.67 0 .923.754 1.67 1.684 1.67zM43.81 51.358h-6.23c-.93 0-1.684.747-1.684 1.67 0 .922.754 1.67 1.684 1.67h6.23c.93 0 1.685-.748 1.685-1.67 0-.923-.754-1.67-1.685-1.67zM53.221 54.697h24.2c.93 0 1.684-.747 1.684-1.67 0-.922-.754-1.67-1.685-1.67H53.221c-.93 0-1.684.748-1.684 1.67 0 .923.754 1.67 1.684 1.67zM44.726 99.598c-.93 0-1.684.747-1.684 1.67 0 .922.754 1.67 1.684 1.67h25.547c.93 0 1.685-.748 1.685-1.67 0-.923-.754-1.67-1.685-1.67H44.726z" fill="#333"/><path d="M113.315 63.196h-7.188l4.325-29.029a1.673 1.673 0 00-1.421-1.896 1.683 1.683 0 00-1.913 1.408l-4.397 29.517H88.534V11.18l20.997 3.351a.442.442 0 01.362.524l-1.772 11.892a1.673 1.673 0 001.669 1.914 1.68 1.68 0 001.664-1.426l1.769-11.87a3.729 3.729 0 00-.674-2.814 3.79 3.79 0 00-2.483-1.517L88.534 7.797v-3.41c0-2.084-1.71-3.779-3.811-3.779H55.319c-.93 0-1.684.748-1.684 1.67 0 .922.754 1.67 1.684 1.67h29.404a.44.44 0 01.442.438v58.81h-8.931c-2.127 0-4.056 1.327-4.8 3.302l-1.671 4.435a1.762 1.762 0 01-1.644 1.13H46.881a1.762 1.762 0 01-1.644-1.13l-1.67-4.435c-.745-1.975-2.674-3.302-4.8-3.302h-8.932V4.386a.44.44 0 01.442-.438h18.307c.93 0 1.684-.748 1.684-1.67 0-.922-.754-1.67-1.684-1.67H30.277c-2.101 0-3.811 1.695-3.811 3.778v3.411L4.934 11.234c-1.005.16-1.887.699-2.483 1.517a3.716 3.716 0 00-.677 2.792l7.1 47.653h-7.19c-.93 0-1.684.748-1.684 1.67V95.71c0 8.647 7.097 15.682 15.82 15.682h7.298c.93 0 1.685-.748 1.685-1.67 0-.923-.755-1.67-1.685-1.67H15.82c-6.866 0-12.45-5.537-12.45-12.342V66.536h35.396c.728 0 1.389.454 1.644 1.13l1.671 4.436c.744 1.975 2.673 3.301 4.8 3.301h21.238c2.127 0 4.056-1.326 4.8-3.301l1.67-4.435a1.762 1.762 0 011.645-1.13h35.397V95.71c0 6.805-5.586 12.342-12.45 12.342H29.852c-.93 0-1.684.747-1.684 1.67 0 .922.754 1.67 1.684 1.67H99.18c8.723 0 15.82-7.035 15.82-15.682V64.866c0-.922-.754-1.67-1.685-1.67zM5.103 15.034a.427.427 0 01.079-.327.434.434 0 01.288-.176l20.996-3.35v52.015H12.279L5.103 15.034z" fill="#333"/></svg>