<svg width="220" height="221" fill="none" xmlns="http://www.w3.org/2000/svg"><path fill="#F0005C" d="M200.562 220.232L411.581 9.213l.707.707L201.27 220.94zm-20 0L391.581 9.213l.707.707L181.27 220.94zm-20 0L371.581 9.213l.707.707L161.27 220.94zm-20 0L351.581 9.213l.707.707L141.27 220.94zm-20 0L331.581 9.213l.707.707L121.27 220.94zm-20 0L311.581 9.213l.707.707L101.27 220.94zm-20.001 0L291.581 9.213l.706.707L81.268 220.94zm-19.999 0L271.58 9.212l.707.708L61.269 220.939zm-20 0L251.58 9.212l.707.708L41.269 220.939zm-20.001 0L231.581 9.213l.706.707L21.268 220.94zm-19.999 0L220.273.52l.707.707L1.27 220.94z"/></svg>